<svg width="917" height="841" viewBox="0 0 917 841" fill="none" xmlns="http://www.w3.org/2000/svg">
<path opacity="0.3" d="M540.248 17.218L371.398 186.067L540.248 354.917L709.097 186.067L540.248 17.218Z" stroke="#EBEBEB" stroke-width="23.2475" stroke-miterlimit="10"/>
<path opacity="0.5" d="M464.383 457.247L330.208 591.421L464.383 725.596L598.557 591.421L464.383 457.247Z" stroke="#EBEBEB" stroke-width="23.2475" stroke-miterlimit="10"/>
<path d="M789.248 306.704L669.248 426.704L789.248 546.704L909.248 426.704L789.248 306.704Z" stroke="#EBEBEB" stroke-width="10.3322" stroke-miterlimit="10"/>
<path d="M160.971 275L7.88086 428.091L160.971 581.181L314.062 428.091L160.971 275Z" stroke="#EBEBEB" stroke-width="10.3322" stroke-miterlimit="10"/>
<path d="M460.436 377.855L291.587 546.704L460.436 715.553L629.286 546.704L460.436 377.855Z" stroke="#EBEBEB" stroke-width="10.3322" stroke-miterlimit="10"/>
<path d="M573.651 588.357L478.055 683.954L573.651 779.55L669.248 683.954L573.651 588.357Z" stroke="#EBEBEB" stroke-width="2.58306" stroke-miterlimit="10"/>
<path d="M297.216 647.424L201.823 742.817L297.216 838.21L392.609 742.817L297.216 647.424Z" stroke="#EBEBEB" stroke-width="2.58306" stroke-miterlimit="10"/>
<path opacity="0.3" d="M181.772 167.775L12.9229 336.624L181.772 505.473L350.622 336.624L181.772 167.775Z" stroke="#EBEBEB" stroke-width="10.3322" stroke-miterlimit="10"/>
<path opacity="0.2" d="M513.265 310.61L460.437 363.438L513.265 416.267L566.094 363.438L513.265 310.61Z" stroke="#EBEBEB" stroke-width="10.3322" stroke-miterlimit="10"/>
<path d="M249.294 478.27L214.691 512.873L249.294 547.476L283.898 512.873L249.294 478.27Z" stroke="#EBEBEB" stroke-width="2.58306" stroke-miterlimit="10"/>
</svg>
