<svg width="565" height="3303" viewBox="0 0 565 3303" fill="none" xmlns="http://www.w3.org/2000/svg">
<path opacity="0.3" d="M860.265 -47.7343L308.231 504.299L860.264 1056.33L1412.3 504.299L860.265 -47.7343Z" fill="#EDEDED"/>
<path opacity="0.3" d="M495.239 134.224L345.021 284.441L495.239 434.659L645.456 284.441L495.239 134.224Z" stroke="#EBEBEB" stroke-width="27" stroke-miterlimit="10"/>
<path opacity="0.5" d="M456.241 654.787L306.023 805.004L456.241 955.221L606.458 805.004L456.241 654.787Z" stroke="#EBEBEB" stroke-width="27" stroke-miterlimit="10"/>
<path d="M680.472 437.009L530.255 587.227L680.472 737.444L830.689 587.227L680.472 437.009Z" stroke="#EBEBEB" stroke-width="12" stroke-miterlimit="10"/>
<path d="M348.32 98.3961L198.103 248.613L348.32 398.83L498.537 248.613L348.32 98.3961Z" stroke="#EBEBEB" stroke-width="12" stroke-miterlimit="10"/>
<path d="M523.825 652.827L403.192 773.46L523.825 894.093L644.459 773.46L523.825 652.827Z" stroke="#EBEBEB" stroke-width="3" stroke-miterlimit="10"/>
<path d="M195.567 724.547L74.9336 845.18L195.567 965.813L316.2 845.18L195.567 724.547Z" stroke="#EBEBEB" stroke-miterlimit="10"/>
<path d="M617.275 196.267L496.642 316.9L617.275 437.533L737.908 316.9L617.275 196.267Z" stroke="#EBEBEB" stroke-width="3" stroke-miterlimit="10"/>
<path d="M201.553 81.3982L80.9199 202.031L201.553 322.664L322.186 202.031L201.553 81.3982Z" stroke="#EBEBEB" stroke-miterlimit="10"/>
<path opacity="0.3" d="M159.461 359.998L9.24414 510.215L159.461 660.432L309.678 510.215L159.461 359.998Z" stroke="#EBEBEB" stroke-width="12" stroke-miterlimit="10"/>
<path opacity="0.1" d="M259.524 709.231L109.307 859.448L259.524 1009.67L409.741 859.448L259.524 709.231Z" stroke="#EBEBEB" stroke-width="12" stroke-miterlimit="10"/>
<path opacity="0.2" d="M454.374 487.073L407.375 534.072L454.374 581.071L501.373 534.072L454.374 487.073Z" stroke="#EBEBEB" stroke-width="12" stroke-miterlimit="10"/>
<path d="M219.532 636.231L188.747 667.016L219.532 697.8L250.316 667.016L219.532 636.231Z" stroke="#EBEBEB" stroke-width="3" stroke-miterlimit="10"/>
<path d="M392.082 426.138L366.739 451.48L392.082 476.823L417.425 451.48L392.082 426.138Z" stroke="#EBEBEB" stroke-miterlimit="10"/>
<path d="M274.891 374.48L258.996 390.375L274.891 406.27L290.786 390.375L274.891 374.48Z" stroke="#EBEBEB" stroke-width="3" stroke-miterlimit="10"/>
<path opacity="0.1" d="M597.702 95.9992H561.243L924.933 -259.266H961.391L597.702 95.9992Z" fill="#130F33"/>
<path opacity="0.2" d="M591.432 469.394H554.974L918.663 114.129H955.122L591.432 469.394Z" fill="#130F33"/>
</svg>
