<svg width="205" height="49" viewBox="0 0 205 49" fill="none" xmlns="http://www.w3.org/2000/svg">
<path d="M36.1951 6.83864C37.5569 6.83864 38.7357 7.06561 39.7314 7.51954C40.7418 7.97348 41.5179 8.61777 42.0597 9.45243C42.6014 10.2871 42.8723 11.2755 42.8723 12.4177C42.8723 13.5452 42.6014 14.5336 42.0597 15.3829C41.5179 16.2175 40.7418 16.8618 39.7314 17.3158C38.7357 17.7551 37.5569 17.9747 36.1951 17.9747H33.0981V22.2139H29.5398V6.83864H36.1951ZM35.9974 15.0754C37.0664 15.0754 37.8791 14.8484 38.4355 14.3945C38.9919 13.9259 39.2701 13.267 39.2701 12.4177C39.2701 11.5537 38.9919 10.8948 38.4355 10.4408C37.8791 9.97226 37.0664 9.73797 35.9974 9.73797H33.0981V15.0754H35.9974ZM58.7581 6.83864L52.2126 19.007C51.583 20.1785 50.8215 21.0644 49.9283 21.6648C49.0497 22.2651 48.0906 22.5653 47.0509 22.5653C46.2456 22.5653 45.4109 22.3896 44.547 22.0382L45.4036 19.3365C46.0186 19.5269 46.5311 19.622 46.9411 19.622C47.3804 19.622 47.7758 19.5195 48.1272 19.3145C48.4786 19.0949 48.8008 18.7581 49.0936 18.3042L49.2254 18.1285L43.1632 6.83864H46.9631L51.0485 15.0973L55.2657 6.83864H58.7581ZM67.5262 22.4774C65.9594 22.4774 64.5391 22.1407 63.2651 21.4671C62.0058 20.7788 61.0101 19.8344 60.2779 18.6336C59.5604 17.4183 59.2017 16.0491 59.2017 14.5263C59.2017 13.0034 59.5604 11.6416 60.2779 10.4408C61.0101 9.22546 62.0058 8.28098 63.2651 7.6074C64.5391 6.91918 65.9668 6.57507 67.5482 6.57507C68.8807 6.57507 70.0815 6.80936 71.1504 7.27793C72.234 7.74651 73.1419 8.42009 73.874 9.29868L71.5897 11.4073C70.55 10.2065 69.2614 9.60618 67.7239 9.60618C66.7721 9.60618 65.9228 9.81851 65.176 10.2432C64.4292 10.6532 63.8435 11.2316 63.4189 11.9784C63.0089 12.7252 62.8039 13.5745 62.8039 14.5263C62.8039 15.4781 63.0089 16.3274 63.4189 17.0741C63.8435 17.8209 64.4292 18.4067 65.176 18.8313C65.9228 19.2413 66.7721 19.4463 67.7239 19.4463C69.2614 19.4463 70.55 18.8386 71.5897 17.6233L73.874 19.7319C73.1419 20.6251 72.234 21.306 71.1504 21.7746C70.0668 22.2432 68.8588 22.4774 67.5262 22.4774ZM41.2909 31.738H36.3708V44.2139H32.8565V31.738H27.9584V28.8386H41.2909V31.738ZM55.4299 41.3585V44.2139H43.5251V28.8386H55.1444V31.694H47.0614V35.0327H54.1999V37.8002H47.0614V41.3585H55.4299ZM60.9214 28.8386L64.1063 33.4951L67.2912 28.8386H71.4644L66.3467 36.1968L71.8818 44.2139H67.6865L64.1063 39.1181L60.57 44.2139H56.4626L61.9538 36.3505L56.814 28.8386H60.9214ZM87.6132 28.8386V44.2139H84.055V37.91H77.0702V44.2139H73.5119V28.8386H77.0702V34.9009H84.055V28.8386H87.6132ZM98.8016 44.4774C97.2055 44.4774 95.7632 44.1333 94.4746 43.4451C93.2006 42.7569 92.1976 41.8124 91.4654 40.6117C90.7479 39.3963 90.3892 38.0345 90.3892 36.5263C90.3892 35.018 90.7479 33.6635 91.4654 32.4628C92.1976 31.2474 93.2006 30.2956 94.4746 29.6074C95.7632 28.9192 97.2055 28.5751 98.8016 28.5751C100.398 28.5751 101.833 28.9192 103.107 29.6074C104.381 30.2956 105.384 31.2474 106.116 32.4628C106.848 33.6635 107.214 35.018 107.214 36.5263C107.214 38.0345 106.848 39.3963 106.116 40.6117C105.384 41.8124 104.381 42.7569 103.107 43.4451C101.833 44.1333 100.398 44.4774 98.8016 44.4774ZM98.8016 41.4463C99.7095 41.4463 100.529 41.2413 101.262 40.8313C101.994 40.4067 102.565 39.8209 102.975 39.0741C103.4 38.3274 103.612 37.4781 103.612 36.5263C103.612 35.5745 103.4 34.7252 102.975 33.9784C102.565 33.2316 101.994 32.6532 101.262 32.2432C100.529 31.8185 99.7095 31.6062 98.8016 31.6062C97.8937 31.6062 97.0737 31.8185 96.3416 32.2432C95.6094 32.6532 95.031 33.2316 94.6064 33.9784C94.1964 34.7252 93.9914 35.5745 93.9914 36.5263C93.9914 37.4781 94.1964 38.3274 94.6064 39.0741C95.031 39.8209 95.6094 40.4067 96.3416 40.8313C97.0737 41.2413 97.8937 41.4463 98.8016 41.4463ZM123.232 28.8386V44.2139H119.718V31.738H114.446L114.336 34.9448C114.263 37.1266 114.087 38.8984 113.809 40.2602C113.531 41.6074 113.062 42.6471 112.404 43.3792C111.759 44.0967 110.851 44.4555 109.68 44.4555C109.197 44.4555 108.611 44.3749 107.923 44.2139L108.142 41.2047C108.333 41.2633 108.545 41.2926 108.779 41.2926C109.629 41.2926 110.222 40.7947 110.559 39.799C110.895 38.7886 111.108 37.2145 111.195 35.0766L111.415 28.8386H123.232ZM134.408 44.4774C132.812 44.4774 131.37 44.1333 130.081 43.4451C128.807 42.7569 127.804 41.8124 127.072 40.6117C126.355 39.3963 125.996 38.0345 125.996 36.5263C125.996 35.018 126.355 33.6635 127.072 32.4628C127.804 31.2474 128.807 30.2956 130.081 29.6074C131.37 28.9192 132.812 28.5751 134.408 28.5751C136.004 28.5751 137.439 28.9192 138.713 29.6074C139.987 30.2956 140.99 31.2474 141.723 32.4628C142.455 33.6635 142.821 35.018 142.821 36.5263C142.821 38.0345 142.455 39.3963 141.723 40.6117C140.99 41.8124 139.987 42.7569 138.713 43.4451C137.439 44.1333 136.004 44.4774 134.408 44.4774ZM134.408 41.4463C135.316 41.4463 136.136 41.2413 136.868 40.8313C137.6 40.4067 138.172 39.8209 138.582 39.0741C139.006 38.3274 139.219 37.4781 139.219 36.5263C139.219 35.5745 139.006 34.7252 138.582 33.9784C138.172 33.2316 137.6 32.6532 136.868 32.2432C136.136 31.8185 135.316 31.6062 134.408 31.6062C133.5 31.6062 132.68 31.8185 131.948 32.2432C131.216 32.6532 130.638 33.2316 130.213 33.9784C129.803 34.7252 129.598 35.5745 129.598 36.5263C129.598 37.4781 129.803 38.3274 130.213 39.0741C130.638 39.8209 131.216 40.4067 131.948 40.8313C132.68 41.2413 133.5 41.4463 134.408 41.4463ZM160.991 41.3145V47.3987H157.697V44.2139H146.846V47.3987H143.551L143.573 41.3145H144.188C145.111 41.2853 145.763 40.6117 146.143 39.2938C146.524 37.9759 146.758 36.0943 146.846 33.6489L147.022 28.8386H158.839V41.3145H160.991ZM149.987 33.9784C149.914 35.8087 149.76 37.3463 149.526 38.5909C149.291 39.8209 148.933 40.7288 148.45 41.3145H155.324V31.738H150.053L149.987 33.9784ZM177.334 38.0198H175.094V44.2139H171.601V38.0198H169.317L165.869 44.2139H161.761L166.374 36.1748L162.047 28.8386H165.803L169.251 35.0546H171.601V28.8386H175.094V35.0546H177.378L180.849 28.8386H184.604L180.299 36.1748L184.89 44.2139H180.783L177.334 38.0198ZM186.595 28.8386H190.132V38.8545L197.468 28.8386H200.806V44.2139H197.292V34.22L189.956 44.2139H186.595V28.8386Z" fill="#C02503"/>
<path d="M36.1951 6.83864C37.5569 6.83864 38.7357 7.06561 39.7314 7.51954C40.7418 7.97348 41.5179 8.61777 42.0597 9.45243C42.6014 10.2871 42.8723 11.2755 42.8723 12.4177C42.8723 13.5452 42.6014 14.5336 42.0597 15.3829C41.5179 16.2175 40.7418 16.8618 39.7314 17.3158C38.7357 17.7551 37.5569 17.9747 36.1951 17.9747H33.0981V22.2139H29.5398V6.83864H36.1951ZM35.9974 15.0754C37.0664 15.0754 37.8791 14.8484 38.4355 14.3945C38.9919 13.9259 39.2701 13.267 39.2701 12.4177C39.2701 11.5537 38.9919 10.8948 38.4355 10.4408C37.8791 9.97226 37.0664 9.73797 35.9974 9.73797H33.0981V15.0754H35.9974ZM58.7581 6.83864L52.2126 19.007C51.583 20.1785 50.8215 21.0644 49.9283 21.6648C49.0497 22.2651 48.0906 22.5653 47.0509 22.5653C46.2456 22.5653 45.4109 22.3896 44.547 22.0382L45.4036 19.3365C46.0186 19.5269 46.5311 19.622 46.9411 19.622C47.3804 19.622 47.7758 19.5195 48.1272 19.3145C48.4786 19.0949 48.8008 18.7581 49.0936 18.3042L49.2254 18.1285L43.1632 6.83864H46.9631L51.0485 15.0973L55.2657 6.83864H58.7581ZM67.5262 22.4774C65.9594 22.4774 64.5391 22.1407 63.2651 21.4671C62.0058 20.7788 61.0101 19.8344 60.2779 18.6336C59.5604 17.4183 59.2017 16.0491 59.2017 14.5263C59.2017 13.0034 59.5604 11.6416 60.2779 10.4408C61.0101 9.22546 62.0058 8.28098 63.2651 7.6074C64.5391 6.91918 65.9668 6.57507 67.5482 6.57507C68.8807 6.57507 70.0815 6.80936 71.1504 7.27793C72.234 7.74651 73.1419 8.42009 73.874 9.29868L71.5897 11.4073C70.55 10.2065 69.2614 9.60618 67.7239 9.60618C66.7721 9.60618 65.9228 9.81851 65.176 10.2432C64.4292 10.6532 63.8435 11.2316 63.4189 11.9784C63.0089 12.7252 62.8039 13.5745 62.8039 14.5263C62.8039 15.4781 63.0089 16.3274 63.4189 17.0741C63.8435 17.8209 64.4292 18.4067 65.176 18.8313C65.9228 19.2413 66.7721 19.4463 67.7239 19.4463C69.2614 19.4463 70.55 18.8386 71.5897 17.6233L73.874 19.7319C73.1419 20.6251 72.234 21.306 71.1504 21.7746C70.0668 22.2432 68.8588 22.4774 67.5262 22.4774ZM41.2909 31.738H36.3708V44.2139H32.8565V31.738H27.9584V28.8386H41.2909V31.738ZM55.4299 41.3585V44.2139H43.5251V28.8386H55.1444V31.694H47.0614V35.0327H54.1999V37.8002H47.0614V41.3585H55.4299ZM60.9214 28.8386L64.1063 33.4951L67.2912 28.8386H71.4644L66.3467 36.1968L71.8818 44.2139H67.6865L64.1063 39.1181L60.57 44.2139H56.4626L61.9538 36.3505L56.814 28.8386H60.9214ZM87.6132 28.8386V44.2139H84.055V37.91H77.0702V44.2139H73.5119V28.8386H77.0702V34.9009H84.055V28.8386H87.6132ZM98.8016 44.4774C97.2055 44.4774 95.7632 44.1333 94.4746 43.4451C93.2006 42.7569 92.1976 41.8124 91.4654 40.6117C90.7479 39.3963 90.3892 38.0345 90.3892 36.5263C90.3892 35.018 90.7479 33.6635 91.4654 32.4628C92.1976 31.2474 93.2006 30.2956 94.4746 29.6074C95.7632 28.9192 97.2055 28.5751 98.8016 28.5751C100.398 28.5751 101.833 28.9192 103.107 29.6074C104.381 30.2956 105.384 31.2474 106.116 32.4628C106.848 33.6635 107.214 35.018 107.214 36.5263C107.214 38.0345 106.848 39.3963 106.116 40.6117C105.384 41.8124 104.381 42.7569 103.107 43.4451C101.833 44.1333 100.398 44.4774 98.8016 44.4774ZM98.8016 41.4463C99.7095 41.4463 100.529 41.2413 101.262 40.8313C101.994 40.4067 102.565 39.8209 102.975 39.0741C103.4 38.3274 103.612 37.4781 103.612 36.5263C103.612 35.5745 103.4 34.7252 102.975 33.9784C102.565 33.2316 101.994 32.6532 101.262 32.2432C100.529 31.8185 99.7095 31.6062 98.8016 31.6062C97.8937 31.6062 97.0737 31.8185 96.3416 32.2432C95.6094 32.6532 95.031 33.2316 94.6064 33.9784C94.1964 34.7252 93.9914 35.5745 93.9914 36.5263C93.9914 37.4781 94.1964 38.3274 94.6064 39.0741C95.031 39.8209 95.6094 40.4067 96.3416 40.8313C97.0737 41.2413 97.8937 41.4463 98.8016 41.4463ZM123.232 28.8386V44.2139H119.718V31.738H114.446L114.336 34.9448C114.263 37.1266 114.087 38.8984 113.809 40.2602C113.531 41.6074 113.062 42.6471 112.404 43.3792C111.759 44.0967 110.851 44.4555 109.68 44.4555C109.197 44.4555 108.611 44.3749 107.923 44.2139L108.142 41.2047C108.333 41.2633 108.545 41.2926 108.779 41.2926C109.629 41.2926 110.222 40.7947 110.559 39.799C110.895 38.7886 111.108 37.2145 111.195 35.0766L111.415 28.8386H123.232ZM134.408 44.4774C132.812 44.4774 131.37 44.1333 130.081 43.4451C128.807 42.7569 127.804 41.8124 127.072 40.6117C126.355 39.3963 125.996 38.0345 125.996 36.5263C125.996 35.018 126.355 33.6635 127.072 32.4628C127.804 31.2474 128.807 30.2956 130.081 29.6074C131.37 28.9192 132.812 28.5751 134.408 28.5751C136.004 28.5751 137.439 28.9192 138.713 29.6074C139.987 30.2956 140.99 31.2474 141.723 32.4628C142.455 33.6635 142.821 35.018 142.821 36.5263C142.821 38.0345 142.455 39.3963 141.723 40.6117C140.99 41.8124 139.987 42.7569 138.713 43.4451C137.439 44.1333 136.004 44.4774 134.408 44.4774ZM134.408 41.4463C135.316 41.4463 136.136 41.2413 136.868 40.8313C137.6 40.4067 138.172 39.8209 138.582 39.0741C139.006 38.3274 139.219 37.4781 139.219 36.5263C139.219 35.5745 139.006 34.7252 138.582 33.9784C138.172 33.2316 137.6 32.6532 136.868 32.2432C136.136 31.8185 135.316 31.6062 134.408 31.6062C133.5 31.6062 132.68 31.8185 131.948 32.2432C131.216 32.6532 130.638 33.2316 130.213 33.9784C129.803 34.7252 129.598 35.5745 129.598 36.5263C129.598 37.4781 129.803 38.3274 130.213 39.0741C130.638 39.8209 131.216 40.4067 131.948 40.8313C132.68 41.2413 133.5 41.4463 134.408 41.4463ZM160.991 41.3145V47.3987H157.697V44.2139H146.846V47.3987H143.551L143.573 41.3145H144.188C145.111 41.2853 145.763 40.6117 146.143 39.2938C146.524 37.9759 146.758 36.0943 146.846 33.6489L147.022 28.8386H158.839V41.3145H160.991ZM149.987 33.9784C149.914 35.8087 149.76 37.3463 149.526 38.5909C149.291 39.8209 148.933 40.7288 148.45 41.3145H155.324V31.738H150.053L149.987 33.9784ZM177.334 38.0198H175.094V44.2139H171.601V38.0198H169.317L165.869 44.2139H161.761L166.374 36.1748L162.047 28.8386H165.803L169.251 35.0546H171.601V28.8386H175.094V35.0546H177.378L180.849 28.8386H184.604L180.299 36.1748L184.89 44.2139H180.783L177.334 38.0198ZM186.595 28.8386H190.132V38.8545L197.468 28.8386H200.806V44.2139H197.292V34.22L189.956 44.2139H186.595V28.8386Z" fill="#2D2D2D"/>
<path fill-rule="evenodd" clip-rule="evenodd" d="M9.23433 0.800781H17.1431V8.70958H12.1983V4.90532H9.23433V0.800781ZM5.07282 8.92101H6.67998V13.4218H11.2864V17.2247H12.472V19.7605H9.30252V21.028H2.96387V19.7599H6.13337V13.422H2.17897V9.04767H2.1307V6.7625H0V0.800781H2.94212V3.08595H5.07282V8.92101ZM2.94212 21.028H2.83404V24.8314H2.94212V29.0307H0V16.824H2.94212V21.028ZM2.96387 24.8314H9.30252V26.0985H2.96387V24.8314ZM10.0794 24.4719H12.2298V21.3683H10.0794V24.4719ZM12.4946 17.2247V21.2478H15.4367V13.416H14.1742V10.317H11.2695V13.4206H12.4946V13.4214H15.0897V17.2247H12.4946ZM10.6338 26.0989H5.76072V30.8102H3.02662V38.4169H11.9694V40.9842H14.8742V34.6343H12.0629V34.6131H5.94755V30.8097H10.6338V26.0989ZM11.9684 30.8097H13.1864V30.8231H17.1425V24.4731H11.9684V30.8097ZM9.6555 38.4178H6.98199V40.8236H0.710556V43.9272H5.39772V48.9996H10.633V43.7646H11.9696V41.091H9.6555V38.4178ZM3.61532 45.896H0.710556V48.9996H3.61532V45.896ZM17.1426 41.1683H14.2005V49H17.1426V41.1683Z" fill="#FFDD2D"/>
</svg>
