<svg width="422" height="49" viewBox="0 0 422 49" fill="none" xmlns="http://www.w3.org/2000/svg">
<path d="M29.9666 5.83962C31.3284 5.83962 32.5072 6.06659 33.5029 6.52052C34.5133 6.97446 35.2893 7.61875 35.8311 8.45341C36.3729 9.28806 36.6438 10.2765 36.6438 11.4186C36.6438 12.5461 36.3729 13.5346 35.8311 14.3839C35.2893 15.2185 34.5133 15.8628 33.5029 16.3167C32.5072 16.756 31.3284 16.9757 29.9666 16.9757H26.8696V21.2148H23.3113V5.83962H29.9666ZM29.7689 14.0763C30.8379 14.0763 31.6505 13.8494 32.207 13.3954C32.7634 12.9269 33.0416 12.2679 33.0416 11.4186C33.0416 10.5547 32.7634 9.89575 32.207 9.44181C31.6505 8.97324 30.8379 8.73895 29.7689 8.73895H26.8696V14.0763H29.7689ZM52.5296 5.83962L45.9841 18.008C45.3545 19.1795 44.593 20.0654 43.6998 20.6657C42.8212 21.2661 41.8621 21.5663 40.8224 21.5663C40.0171 21.5663 39.1824 21.3906 38.3185 21.0391L39.1751 18.3375C39.7901 18.5278 40.3026 18.623 40.7126 18.623C41.1519 18.623 41.5473 18.5205 41.8987 18.3155C42.2501 18.0959 42.5723 17.7591 42.8651 17.3051L42.9969 17.1294L36.9347 5.83962H40.7346L44.82 14.0983L49.0372 5.83962H52.5296ZM61.2977 21.4784C59.7309 21.4784 58.3105 21.1416 57.0366 20.468C55.7773 19.7798 54.7816 18.8353 54.0494 17.6346C53.3319 16.4192 52.9731 15.0501 52.9731 13.5272C52.9731 12.0044 53.3319 10.6425 54.0494 9.44181C54.7816 8.22644 55.7773 7.28196 57.0366 6.60838C58.3105 5.92016 59.7382 5.57604 61.3197 5.57604C62.6522 5.57604 63.8529 5.81033 64.9219 6.27891C66.0055 6.74749 66.9133 7.42107 67.6455 8.29965L65.3612 10.4083C64.3215 9.20753 63.0329 8.60716 61.4954 8.60716C60.5436 8.60716 59.6943 8.81948 58.9475 9.24413C58.2007 9.65414 57.615 10.2325 57.1903 10.9793C56.7803 11.7261 56.5753 12.5754 56.5753 13.5272C56.5753 14.479 56.7803 15.3283 57.1903 16.0751C57.615 16.8219 58.2007 17.4076 58.9475 17.8323C59.6943 18.2423 60.5436 18.4473 61.4954 18.4473C63.0329 18.4473 64.3215 17.8396 65.3612 16.6242L67.6455 18.7328C66.9133 19.6261 66.0055 20.307 64.9219 20.7756C63.8383 21.2441 62.6302 21.4784 61.2977 21.4784ZM35.0624 30.7389H30.1423V43.2148H26.628V30.7389H21.7299V27.8396H35.0624V30.7389ZM49.2014 40.3594V43.2148H37.2966V27.8396H48.9159V30.695H40.8329V34.0336H47.9714V36.8012H40.8329V40.3594H49.2014ZM54.6929 27.8396L57.8778 32.4961L61.0626 27.8396H65.2359L60.1182 35.1978L65.6532 43.2148H61.458L57.8778 38.1191L54.3415 43.2148H50.2341L55.7252 35.3515L50.5855 27.8396H54.6929ZM81.3847 27.8396V43.2148H77.8264V36.911H70.8417V43.2148H67.2834V27.8396H70.8417V33.9018H77.8264V27.8396H81.3847ZM92.5731 43.4784C90.977 43.4784 89.5347 43.1343 88.2461 42.4461C86.9721 41.7579 85.9691 40.8134 85.2369 39.6126C84.5194 38.3973 84.1607 37.0355 84.1607 35.5272C84.1607 34.019 84.5194 32.6645 85.2369 31.4638C85.9691 30.2484 86.9721 29.2966 88.2461 28.6084C89.5347 27.9202 90.977 27.576 92.5731 27.576C94.1692 27.576 95.6042 27.9202 96.8782 28.6084C98.1521 29.2966 99.1552 30.2484 99.8873 31.4638C100.619 32.6645 100.986 34.019 100.986 35.5272C100.986 37.0355 100.619 38.3973 99.8873 39.6126C99.1552 40.8134 98.1521 41.7579 96.8782 42.4461C95.6042 43.1343 94.1692 43.4784 92.5731 43.4784ZM92.5731 40.4473C93.481 40.4473 94.301 40.2423 95.0331 39.8323C95.7653 39.4076 96.3364 38.8219 96.7464 38.0751C97.171 37.3283 97.3833 36.479 97.3833 35.5272C97.3833 34.5754 97.171 33.7261 96.7464 32.9793C96.3364 32.2325 95.7653 31.6541 95.0331 31.2441C94.301 30.8195 93.481 30.6072 92.5731 30.6072C91.6652 30.6072 90.8452 30.8195 90.1131 31.2441C89.3809 31.6541 88.8025 32.2325 88.3779 32.9793C87.9679 33.7261 87.7628 34.5754 87.7628 35.5272C87.7628 36.479 87.9679 37.3283 88.3779 38.0751C88.8025 38.8219 89.3809 39.4076 90.1131 39.8323C90.8452 40.2423 91.6652 40.4473 92.5731 40.4473ZM117.004 27.8396V43.2148H113.489V30.7389H108.218L108.108 33.9458C108.035 36.1276 107.859 37.8994 107.581 39.2612C107.303 40.6084 106.834 41.648 106.175 42.3802C105.531 43.0977 104.623 43.4565 103.451 43.4565C102.968 43.4565 102.382 43.3759 101.694 43.2148L101.914 40.2057C102.104 40.2643 102.317 40.2936 102.551 40.2936C103.4 40.2936 103.993 39.7957 104.33 38.8C104.667 37.7896 104.879 36.2155 104.967 34.0776L105.187 27.8396H117.004ZM128.18 43.4784C126.584 43.4784 125.141 43.1343 123.853 42.4461C122.579 41.7579 121.576 40.8134 120.844 39.6126C120.126 38.3973 119.767 37.0355 119.767 35.5272C119.767 34.019 120.126 32.6645 120.844 31.4638C121.576 30.2484 122.579 29.2966 123.853 28.6084C125.141 27.9202 126.584 27.576 128.18 27.576C129.776 27.576 131.211 27.9202 132.485 28.6084C133.759 29.2966 134.762 30.2484 135.494 31.4638C136.226 32.6645 136.592 34.019 136.592 35.5272C136.592 37.0355 136.226 38.3973 135.494 39.6126C134.762 40.8134 133.759 41.7579 132.485 42.4461C131.211 43.1343 129.776 43.4784 128.18 43.4784ZM128.18 40.4473C129.088 40.4473 129.908 40.2423 130.64 39.8323C131.372 39.4076 131.943 38.8219 132.353 38.0751C132.778 37.3283 132.99 36.479 132.99 35.5272C132.99 34.5754 132.778 33.7261 132.353 32.9793C131.943 32.2325 131.372 31.6541 130.64 31.2441C129.908 30.8195 129.088 30.6072 128.18 30.6072C127.272 30.6072 126.452 30.8195 125.72 31.2441C124.988 31.6541 124.409 32.2325 123.985 32.9793C123.575 33.7261 123.37 34.5754 123.37 35.5272C123.37 36.479 123.575 37.3283 123.985 38.0751C124.409 38.8219 124.988 39.4076 125.72 39.8323C126.452 40.2423 127.272 40.4473 128.18 40.4473ZM154.763 40.3155V46.3997H151.468V43.2148H140.618V46.3997H137.323L137.345 40.3155H137.96C138.882 40.2862 139.534 39.6126 139.915 38.2948C140.295 36.9769 140.53 35.0953 140.618 32.6499L140.793 27.8396H152.61V40.3155H154.763ZM143.759 32.9793C143.685 34.8097 143.532 36.3472 143.297 37.5919C143.063 38.8219 142.704 39.7298 142.221 40.3155H149.096V30.7389H143.824L143.759 32.9793ZM171.106 37.0208H168.865V43.2148H165.373V37.0208H163.089L159.64 43.2148H155.533L160.145 35.1758L155.818 27.8396H159.574L163.023 34.0556H165.373V27.8396H168.865V34.0556H171.15L174.62 27.8396H178.376L174.071 35.1758L178.661 43.2148H174.554L171.106 37.0208ZM180.367 27.8396H183.903V37.8555L191.239 27.8396H194.578V43.2148H191.064V33.2209L183.727 43.2148H180.367V27.8396Z" fill="#C02503"/>
<rect x="4.79688" width="8" height="8" fill="#E2E7ED"/>
<rect x="0.244141" y="8.21289" width="4.55291" height="4.55291" fill="#E2E7ED"/>
<rect x="4.24414" y="12.7656" width="6.41175" height="6.41175" fill="#E2E7ED"/>
<rect x="1.03809" y="19.1777" width="6.41175" height="6.41175" fill="#E2E7ED"/>
<rect x="3.86719" y="25.5898" width="4.92924" height="4.92924" fill="#E2E7ED"/>
<rect x="1.10156" y="30.3555" width="7.69446" height="7.69446" fill="#E2E7ED"/>
<rect x="4.94824" y="30.3555" width="3.84723" height="3.84723" fill="white"/>
<rect x="0.949219" y="20.4609" width="3.84723" height="3.84723" fill="white"/>
<rect x="6.87305" y="12.7656" width="3.84723" height="3.84723" fill="white"/>
<rect x="3.94824" y="4.15234" width="3.84723" height="3.84723" fill="white"/>
<rect x="5.10254" y="38.0508" width="2.70435" height="2.70435" fill="#E2E7ED"/>
<rect x="7.44336" y="40.7539" width="2.70435" height="2.70435" fill="#E2E7ED"/>
<rect x="3.5" y="43.459" width="5.29565" height="5.29565" fill="#E2E7ED"/>
<path d="M29.9666 5.83962C31.3284 5.83962 32.5072 6.06659 33.5029 6.52052C34.5133 6.97446 35.2893 7.61875 35.8311 8.45341C36.3729 9.28806 36.6438 10.2765 36.6438 11.4186C36.6438 12.5461 36.3729 13.5346 35.8311 14.3839C35.2893 15.2185 34.5133 15.8628 33.5029 16.3167C32.5072 16.756 31.3284 16.9757 29.9666 16.9757H26.8696V21.2148H23.3113V5.83962H29.9666ZM29.7689 14.0763C30.8379 14.0763 31.6505 13.8494 32.207 13.3954C32.7634 12.9269 33.0416 12.2679 33.0416 11.4186C33.0416 10.5547 32.7634 9.89575 32.207 9.44181C31.6505 8.97324 30.8379 8.73895 29.7689 8.73895H26.8696V14.0763H29.7689ZM52.5296 5.83962L45.9841 18.008C45.3545 19.1795 44.593 20.0654 43.6998 20.6657C42.8212 21.2661 41.8621 21.5663 40.8224 21.5663C40.0171 21.5663 39.1824 21.3906 38.3185 21.0391L39.1751 18.3375C39.7901 18.5278 40.3026 18.623 40.7126 18.623C41.1519 18.623 41.5473 18.5205 41.8987 18.3155C42.2501 18.0959 42.5723 17.7591 42.8651 17.3051L42.9969 17.1294L36.9347 5.83962H40.7346L44.82 14.0983L49.0372 5.83962H52.5296ZM61.2977 21.4784C59.7309 21.4784 58.3105 21.1416 57.0366 20.468C55.7773 19.7798 54.7816 18.8353 54.0494 17.6346C53.3319 16.4192 52.9731 15.0501 52.9731 13.5272C52.9731 12.0044 53.3319 10.6425 54.0494 9.44181C54.7816 8.22644 55.7773 7.28196 57.0366 6.60838C58.3105 5.92016 59.7382 5.57604 61.3197 5.57604C62.6522 5.57604 63.8529 5.81033 64.9219 6.27891C66.0055 6.74749 66.9133 7.42107 67.6455 8.29965L65.3612 10.4083C64.3215 9.20753 63.0329 8.60716 61.4954 8.60716C60.5436 8.60716 59.6943 8.81948 58.9475 9.24413C58.2007 9.65414 57.615 10.2325 57.1903 10.9793C56.7803 11.7261 56.5753 12.5754 56.5753 13.5272C56.5753 14.479 56.7803 15.3283 57.1903 16.0751C57.615 16.8219 58.2007 17.4076 58.9475 17.8323C59.6943 18.2423 60.5436 18.4473 61.4954 18.4473C63.0329 18.4473 64.3215 17.8396 65.3612 16.6242L67.6455 18.7328C66.9133 19.6261 66.0055 20.307 64.9219 20.7756C63.8383 21.2441 62.6302 21.4784 61.2977 21.4784ZM35.0624 30.7389H30.1423V43.2148H26.628V30.7389H21.7299V27.8396H35.0624V30.7389ZM49.2014 40.3594V43.2148H37.2966V27.8396H48.9159V30.695H40.8329V34.0336H47.9714V36.8012H40.8329V40.3594H49.2014ZM54.6929 27.8396L57.8778 32.4961L61.0626 27.8396H65.2359L60.1182 35.1978L65.6532 43.2148H61.458L57.8778 38.1191L54.3415 43.2148H50.2341L55.7252 35.3515L50.5855 27.8396H54.6929ZM81.3847 27.8396V43.2148H77.8264V36.911H70.8417V43.2148H67.2834V27.8396H70.8417V33.9018H77.8264V27.8396H81.3847ZM92.5731 43.4784C90.977 43.4784 89.5347 43.1343 88.2461 42.4461C86.9721 41.7579 85.9691 40.8134 85.2369 39.6126C84.5194 38.3973 84.1607 37.0355 84.1607 35.5272C84.1607 34.019 84.5194 32.6645 85.2369 31.4638C85.9691 30.2484 86.9721 29.2966 88.2461 28.6084C89.5347 27.9202 90.977 27.576 92.5731 27.576C94.1692 27.576 95.6042 27.9202 96.8782 28.6084C98.1521 29.2966 99.1552 30.2484 99.8873 31.4638C100.619 32.6645 100.986 34.019 100.986 35.5272C100.986 37.0355 100.619 38.3973 99.8873 39.6126C99.1552 40.8134 98.1521 41.7579 96.8782 42.4461C95.6042 43.1343 94.1692 43.4784 92.5731 43.4784ZM92.5731 40.4473C93.481 40.4473 94.301 40.2423 95.0331 39.8323C95.7653 39.4076 96.3364 38.8219 96.7464 38.0751C97.171 37.3283 97.3833 36.479 97.3833 35.5272C97.3833 34.5754 97.171 33.7261 96.7464 32.9793C96.3364 32.2325 95.7653 31.6541 95.0331 31.2441C94.301 30.8195 93.481 30.6072 92.5731 30.6072C91.6652 30.6072 90.8452 30.8195 90.1131 31.2441C89.3809 31.6541 88.8025 32.2325 88.3779 32.9793C87.9679 33.7261 87.7628 34.5754 87.7628 35.5272C87.7628 36.479 87.9679 37.3283 88.3779 38.0751C88.8025 38.8219 89.3809 39.4076 90.1131 39.8323C90.8452 40.2423 91.6652 40.4473 92.5731 40.4473ZM117.004 27.8396V43.2148H113.489V30.7389H108.218L108.108 33.9458C108.035 36.1276 107.859 37.8994 107.581 39.2612C107.303 40.6084 106.834 41.648 106.175 42.3802C105.531 43.0977 104.623 43.4565 103.451 43.4565C102.968 43.4565 102.382 43.3759 101.694 43.2148L101.914 40.2057C102.104 40.2643 102.317 40.2936 102.551 40.2936C103.4 40.2936 103.993 39.7957 104.33 38.8C104.667 37.7896 104.879 36.2155 104.967 34.0776L105.187 27.8396H117.004ZM128.18 43.4784C126.584 43.4784 125.141 43.1343 123.853 42.4461C122.579 41.7579 121.576 40.8134 120.844 39.6126C120.126 38.3973 119.767 37.0355 119.767 35.5272C119.767 34.019 120.126 32.6645 120.844 31.4638C121.576 30.2484 122.579 29.2966 123.853 28.6084C125.141 27.9202 126.584 27.576 128.18 27.576C129.776 27.576 131.211 27.9202 132.485 28.6084C133.759 29.2966 134.762 30.2484 135.494 31.4638C136.226 32.6645 136.592 34.019 136.592 35.5272C136.592 37.0355 136.226 38.3973 135.494 39.6126C134.762 40.8134 133.759 41.7579 132.485 42.4461C131.211 43.1343 129.776 43.4784 128.18 43.4784ZM128.18 40.4473C129.088 40.4473 129.908 40.2423 130.64 39.8323C131.372 39.4076 131.943 38.8219 132.353 38.0751C132.778 37.3283 132.99 36.479 132.99 35.5272C132.99 34.5754 132.778 33.7261 132.353 32.9793C131.943 32.2325 131.372 31.6541 130.64 31.2441C129.908 30.8195 129.088 30.6072 128.18 30.6072C127.272 30.6072 126.452 30.8195 125.72 31.2441C124.988 31.6541 124.409 32.2325 123.985 32.9793C123.575 33.7261 123.37 34.5754 123.37 35.5272C123.37 36.479 123.575 37.3283 123.985 38.0751C124.409 38.8219 124.988 39.4076 125.72 39.8323C126.452 40.2423 127.272 40.4473 128.18 40.4473ZM154.763 40.3155V46.3997H151.468V43.2148H140.618V46.3997H137.323L137.345 40.3155H137.96C138.882 40.2862 139.534 39.6126 139.915 38.2948C140.295 36.9769 140.53 35.0953 140.618 32.6499L140.793 27.8396H152.61V40.3155H154.763ZM143.759 32.9793C143.685 34.8097 143.532 36.3472 143.297 37.5919C143.063 38.8219 142.704 39.7298 142.221 40.3155H149.096V30.7389H143.824L143.759 32.9793ZM171.106 37.0208H168.865V43.2148H165.373V37.0208H163.089L159.64 43.2148H155.533L160.145 35.1758L155.818 27.8396H159.574L163.023 34.0556H165.373V27.8396H168.865V34.0556H171.15L174.62 27.8396H178.376L174.071 35.1758L178.661 43.2148H174.554L171.106 37.0208ZM180.367 27.8396H183.903V37.8555L191.239 27.8396H194.578V43.2148H191.064V33.2209L183.727 43.2148H180.367V27.8396Z" fill="#2D2D2D"/>
<rect x="4.79688" width="8" height="8" fill="#FFDD2D"/>
<rect x="0.244141" y="8.21289" width="4.55291" height="4.55291" fill="#FFDD2D"/>
<rect x="4.24414" y="12.7656" width="6.41175" height="6.41175" fill="#FFDD2D"/>
<rect x="1.03809" y="19.1777" width="6.41175" height="6.41175" fill="#FFDD2D"/>
<rect x="3.86719" y="25.5898" width="4.92924" height="4.92924" fill="#FFDD2D"/>
<rect x="1.10156" y="30.3555" width="7.69446" height="7.69446" fill="#FFDD2D"/>
<rect x="4.94824" y="30.3555" width="3.84723" height="3.84723" fill="white"/>
<rect x="0.949219" y="20.4609" width="3.84723" height="3.84723" fill="white"/>
<rect x="6.87305" y="12.7656" width="3.84723" height="3.84723" fill="white"/>
<rect x="3.94824" y="4.15234" width="3.84723" height="3.84723" fill="white"/>
<rect x="5.10254" y="38.0508" width="2.70435" height="2.70435" fill="#FFDD2D"/>
<rect x="7.44336" y="40.7539" width="2.70435" height="2.70435" fill="#FFDD2D"/>
<rect x="3.5" y="43.459" width="5.29565" height="5.29565" fill="#FFDD2D"/>
</svg>
