<svg width="92" height="92" viewBox="0 0 92 92" fill="none" xmlns="http://www.w3.org/2000/svg">
<g clip-path="url(#clip0_669:4259)">
<path d="M23.793 64.2144C23.793 65.9671 25.2134 67.3868 26.9654 67.3868C28.7173 67.3868 30.1378 65.9671 30.1378 64.2144" fill="#00AEEF"/>
<path d="M30.1378 83.2488C30.1378 85.0016 28.7173 86.4212 26.9654 86.4212C25.2134 86.4212 23.793 85.0016 23.793 83.2488C23.793 81.4969 25.2134 80.0764 26.9654 80.0764C28.7173 80.0764 30.1378 81.4969 30.1378 83.2488Z" fill="#00AEEF"/>
<path d="M92 45.1798C91.9977 55.0742 84.4121 63.3151 74.5517 64.1353L17.4483 64.2143C12.8198 64.2174 8.38026 62.3794 5.10793 59.1071C1.83483 55.834 -0.00232135 51.3945 2.20137e-06 46.766C2.20137e-06 38.8985 5.20242 33.8386 12.3566 31.6498C11.524 29.3789 11.0996 26.9779 11.1035 24.5591C11.1073 19.4682 14.1519 14.8715 18.8378 12.8809C23.5236 10.8904 28.9452 11.8911 32.6125 15.4229C35.8484 4.76558 46.9627 -1.39647 57.7153 1.50487C68.4687 4.40698 74.9746 15.323 72.4102 26.1616C72.6007 26.1453 72.775 26.1453 72.9655 26.1453C83.478 26.1453 92 34.6673 92 45.1798Z" fill="#00AEEF"/>
<path d="M74.5527 53.1109H17.4492V37.2488H74.5527V53.1109Z" fill="#898890"/>
<path d="M30.1378 45.1797C30.1378 46.9325 28.7173 48.3521 26.9654 48.3521C25.2134 48.3521 23.793 46.9325 23.793 45.1797C23.793 43.4278 25.2134 42.0073 26.9654 42.0073C28.7173 42.0073 30.1378 43.4278 30.1378 45.1797Z" fill="#F1F2F2"/>
<path d="M74.5527 72.1453H17.4492V56.2832H74.5527V72.1453Z" fill="#898890"/>
<path d="M30.1378 64.2142C30.1378 65.9669 28.7173 67.3866 26.9654 67.3866C25.2134 67.3866 23.793 65.9669 23.793 64.2142C23.793 62.4622 25.2134 61.0417 26.9654 61.0417C28.7173 61.0417 30.1378 62.4622 30.1378 64.2142Z" fill="#F1F2F2"/>
<path d="M74.5527 91.1797H17.4492V75.3176H74.5527V91.1797Z" fill="#898890"/>
<path d="M30.1378 83.2488C30.1378 85.0016 28.7173 86.4212 26.9654 86.4212C25.2134 86.4212 23.793 85.0016 23.793 83.2488C23.793 81.4969 25.2134 80.0764 26.9654 80.0764C28.7173 80.0764 30.1378 81.4969 30.1378 83.2488Z" fill="#F1F2F2"/>
<path d="M66.6211 40.4211H69.7935V43.5936H66.6211V40.4211Z" fill="#F1F2F2"/>
<path d="M60.2754 40.4211H63.4478V43.5936H60.2754V40.4211Z" fill="#F1F2F2"/>
<path d="M53.9316 40.4211H57.104V43.5936H53.9316V40.4211Z" fill="#F1F2F2"/>
<path d="M47.5859 40.4211H50.7583V43.5936H47.5859V40.4211Z" fill="#F1F2F2"/>
<path d="M41.2422 40.4211H44.4146V43.5936H41.2422V40.4211Z" fill="#F1F2F2"/>
<path d="M66.6211 46.7659H69.7935V49.9383H66.6211V46.7659Z" fill="#F1F2F2"/>
<path d="M60.2754 46.7659H63.4478V49.9383H60.2754V46.7659Z" fill="#F1F2F2"/>
<path d="M53.9316 46.7659H57.104V49.9383H53.9316V46.7659Z" fill="#F1F2F2"/>
<path d="M47.5859 46.7659H50.7583V49.9383H47.5859V46.7659Z" fill="#F1F2F2"/>
<path d="M41.2422 46.7659H44.4146V49.9383H41.2422V46.7659Z" fill="#F1F2F2"/>
<path d="M34.8965 40.4211H38.0689V43.5936H34.8965V40.4211Z" fill="#F1F2F2"/>
<path d="M34.8965 46.7659H38.0689V49.9383H34.8965V46.7659Z" fill="#F1F2F2"/>
<path d="M66.6211 59.4556H69.7935V62.628H66.6211V59.4556Z" fill="#F1F2F2"/>
<path d="M60.2754 59.4556H63.4478V62.628H60.2754V59.4556Z" fill="#F1F2F2"/>
<path d="M53.9316 59.4556H57.104V62.628H53.9316V59.4556Z" fill="#F1F2F2"/>
<path d="M47.5859 59.4556H50.7583V62.628H47.5859V59.4556Z" fill="#F1F2F2"/>
<path d="M41.2422 59.4556H44.4146V62.628H41.2422V59.4556Z" fill="#F1F2F2"/>
<path d="M66.6211 65.8005H69.7935V68.973H66.6211V65.8005Z" fill="#F1F2F2"/>
<path d="M60.2754 65.8005H63.4478V68.973H60.2754V65.8005Z" fill="#F1F2F2"/>
<path d="M53.9316 65.8005H57.104V68.973H53.9316V65.8005Z" fill="#F1F2F2"/>
<path d="M47.5859 65.8005H50.7583V68.973H47.5859V65.8005Z" fill="#F1F2F2"/>
<path d="M41.2422 65.8005H44.4146V68.973H41.2422V65.8005Z" fill="#F1F2F2"/>
<path d="M34.8965 59.4556H38.0689V62.628H34.8965V59.4556Z" fill="#F1F2F2"/>
<path d="M34.8965 65.8005H38.0689V68.973H34.8965V65.8005Z" fill="#F1F2F2"/>
<path d="M66.6211 78.49H69.7935V81.6624H66.6211V78.49Z" fill="#F1F2F2"/>
<path d="M60.2754 78.49H63.4478V81.6624H60.2754V78.49Z" fill="#F1F2F2"/>
<path d="M53.9316 78.49H57.104V81.6624H53.9316V78.49Z" fill="#F1F2F2"/>
<path d="M47.5859 78.49H50.7583V81.6624H47.5859V78.49Z" fill="#F1F2F2"/>
<path d="M41.2422 78.49H44.4146V81.6624H41.2422V78.49Z" fill="#F1F2F2"/>
<path d="M66.6211 84.835H69.7935V88.0074H66.6211V84.835Z" fill="#F1F2F2"/>
<path d="M60.2754 84.835H63.4478V88.0074H60.2754V84.835Z" fill="#F1F2F2"/>
<path d="M53.9316 84.835H57.104V88.0074H53.9316V84.835Z" fill="#F1F2F2"/>
<path d="M47.5859 84.835H50.7583V88.0074H47.5859V84.835Z" fill="#F1F2F2"/>
<path d="M41.2422 84.835H44.4146V88.0074H41.2422V84.835Z" fill="#F1F2F2"/>
<path d="M34.8965 78.49H38.0689V81.6624H34.8965V78.49Z" fill="#F1F2F2"/>
<path d="M34.8965 84.835H38.0689V88.0074H34.8965V84.835Z" fill="#F1F2F2"/>
</g>
<defs>
<clipPath id="clip0_669:4259">
<rect width="92" height="92" fill="white"/>
</clipPath>
</defs>
</svg>
