<svg width="92" height="92" viewBox="0 0 92 92" fill="none" xmlns="http://www.w3.org/2000/svg">
<g clip-path="url(#clip0_669:4306)">
<path d="M4.75781 38.0688H39.6544V91.9999H4.75781V38.0688Z" fill="#E2C8AC"/>
<path d="M36.483 0H87.2416C88.9866 0 90.414 1.42743 90.414 3.17241V38.069C90.414 39.8139 88.9866 41.2414 87.2416 41.2414H36.483C34.738 41.2414 33.3105 39.8139 33.3105 38.069V3.17241C33.3105 1.42743 34.738 0 36.483 0Z" fill="#B4B4B5"/>
<path d="M55.5181 63.4482H88.8285C90.5734 63.4482 92.0009 64.8757 92.0009 66.6207V85.6551C92.0009 87.4001 90.5734 88.8275 88.8285 88.8275H55.5181C53.7731 88.8275 52.3457 87.4001 52.3457 85.6551V66.6207C52.3457 64.8757 53.7731 63.4482 55.5181 63.4482Z" fill="#676B7F"/>
<path d="M68.2075 41.2415H55.5178L53.9316 52.3449H69.7937L68.2075 41.2415Z" fill="#8C8C8C"/>
<path d="M33.3105 6.34483H90.414V3.17241C90.414 1.42743 88.9866 0 87.2416 0H36.483C34.738 0 33.3105 1.42743 33.3105 3.17241V6.34483Z" fill="#A0A0A0"/>
<path d="M33.3105 34.8965H90.414V38.0689C90.414 39.8139 88.9866 41.2413 87.2416 41.2413H36.483C34.738 41.2413 33.3105 39.8139 33.3105 38.0689V34.8965Z" fill="#A0A0A0"/>
<path d="M47.5859 50.7585H76.1376V53.931H47.5859V50.7585Z" fill="#A0A0A0"/>
<path d="M0 53.9312V69.7932C0 71.5382 1.42743 72.9656 3.17241 72.9656H41.2414C42.9864 72.9656 44.4138 71.5382 44.4138 69.7932V53.9312H0Z" fill="#3A6289"/>
<path d="M4.75781 65.0344H7.93023V68.2068H4.75781V65.0344Z" fill="#2B4A66"/>
<path d="M11.1035 65.0344H14.2759V68.2068H11.1035V65.0344Z" fill="#2B4A66"/>
<path d="M9.51758 84.0688H34.8969V87.2413H9.51758V84.0688Z" fill="#CEB195"/>
<path d="M71.3789 68.2068H74.5513V71.3792H71.3789V68.2068Z" fill="#4A4A56"/>
<path d="M77.7246 68.2068H80.897V71.3792H77.7246V68.2068Z" fill="#4A4A56"/>
<path d="M84.0684 68.2068H87.2408V71.3792H84.0684V68.2068Z" fill="#4A4A56"/>
<path d="M71.3789 74.5515H74.5513V77.7239H71.3789V74.5515Z" fill="#4A4A56"/>
<path d="M77.7246 74.5515H80.897V77.7239H77.7246V74.5515Z" fill="#4A4A56"/>
<path d="M84.0684 74.5515H87.2408V77.7239H84.0684V74.5515Z" fill="#4A4A56"/>
<path d="M71.3789 80.8965H74.5513V84.0689H71.3789V80.8965Z" fill="#4A4A56"/>
<path d="M77.7246 80.8965H80.897V84.0689H77.7246V80.8965Z" fill="#4A4A56"/>
<path d="M84.0684 80.8965H87.2408V84.0689H84.0684V80.8965Z" fill="#4A4A56"/>
<path d="M61.8619 58.6897H63.4481C65.193 58.6897 66.6205 60.1171 66.6205 61.8621V88.8276C66.6205 90.5726 65.193 92 63.4481 92H61.8619C60.1169 92 58.6895 90.5726 58.6895 88.8276V61.8621C58.6895 60.1171 60.1169 58.6897 61.8619 58.6897Z" fill="#878B9B"/>
<path d="M9.51758 77.7241H34.8969V80.8965H9.51758V77.7241Z" fill="#CEB195"/>
<path d="M7.93023 0H22.2061C23.9511 0 25.3785 1.42743 25.3785 3.17241V28.5517C25.3785 30.2967 23.9511 31.7241 22.2061 31.7241H7.93023C6.18524 31.7241 4.75781 30.2967 4.75781 28.5517V3.17241C4.75781 1.42743 6.18524 0 7.93023 0Z" fill="#878B9B"/>
<path d="M4.75781 6.34483H25.3785V3.17241C25.3785 1.42743 23.9511 0 22.2061 0H7.93023C6.18524 0 4.75781 1.42743 4.75781 3.17241V6.34483Z" fill="#676B7F"/>
<path d="M4.75781 25.3794H25.3785V28.5518C25.3785 30.2968 23.9511 31.7242 22.2061 31.7242H7.93023C6.18524 31.7242 4.75781 30.2968 4.75781 28.5518V25.3794Z" fill="#676B7F"/>
</g>
<defs>
<clipPath id="clip0_669:4306">
<rect width="92" height="92" fill="white"/>
</clipPath>
</defs>
</svg>
